:SAMPLES-PER-SECOND 30
:FULLY-SPECIFIED
:DEGREES
1025
root  75.7067 38.8351 4.83573 178.102 84.9066 175.559
RightUpLeg  -12.5616 -8.09696 -0.563418
RightLeg  14.556 3.43053 2.71508
RightFoot  -3.66691 0.142208 -2.49112
RightToes  -1.16417e-010 0 -3.6325e-017
Spine  1.34899 1.91825 16.2154
Spine1  6.31941 3.81535 -7.91405
HEad  -28.8439 -0.865742 -3.96352
LeftShoulder1  -0.978567 5.94241 -33.943
LeftArm  9.57948 18.8647 -39.3696
LeftForeArm  21.7435 -25.9251 -4.3744
LeftHand  -0.0820519 7.86033 -1.79263
RightShoulder  -0.735209 -5.7289 26.3907
RightArm  15.8631 14.2277 45.6386
RightForeArm  10.7192 20.8222 4.3042
RightHand  0.0507914 4.44331 0.315611
LeftUpLeg  -20.1521 3.16599 2.25386
LeftLeg  36.5113 0.166844 0.48299
LeftFoot  -5.82411 0.193726 -3.29145
LeftToes  3.13772e-010 -3.14513e-011 3.96022e-013
1026
root  76.2572 38.9661 4.81016 176.394 85.683 173.141
RightUpLeg  -11.5068 -7.75018 -0.602021
RightLeg  12.5662 3.81116 2.60237
RightFoot  -3.54253 0.127836 -2.22107
RightToes  -1.16417e-010 0 -3.6325e-017
Spine  0.134819 2.10524 16.2443
Spine1  6.99957 3.96067 -8.70453
HEad  -29.4503 0.132094 -4.68992
LeftShoulder1  -0.971914 5.92868 -33.8945
LeftArm  7.75847 17.5291 -39.8496
LeftForeArm  24.2803 -28.6945 -4.89322
LeftHand  -0.0891855 7.61826 -2.08589
RightShoulder  -0.740696 -5.73241 26.5895
RightArm  16.2959 13.0686 45.9137
RightForeArm  10.534 20.8432 4.32342
RightHand  -0.0199331 4.71115 -0.524809
LeftUpLeg  -19.991 2.26499 1.49721
LeftLeg  27.4954 -0.072125 0.298148
LeftFoot  -5.99198 0.203777 -3.67128
LeftToes  3.13772e-010 -3.14513e-011 3.96022e-013
1027
root  76.7883 39.0409 4.81075 -179.05 86.5541 177.37
RightUpLeg  -10.4769 -7.14055 -0.0373419
RightLeg  11.3781 4.06302 2.30175
RightFoot  -3.46005 0.170424 -2.80387
RightToes  -1.16417e-010 0 -3.6325e-017
Spine  -1.06491 2.13822 15.6727
Spine1  8.12722 3.74547 -8.1452
HEad  -30.3343 1.43213 -5.06834
LeftShoulder1  -0.950536 5.88213 -33.7839
LeftArm  4.8054 17.1847 -40.2015
LeftForeArm  28.0654 -32.6938 -5.61155
LeftHand  -0.154329 8.85661 -3.33202
RightShoulder  -0.741215 -5.72066 26.7903
RightArm  18.1209 12.1176 46.4349
RightForeArm  9.85945 20.1492 4.52296
RightHand  -0.0852876 4.74011 -1.27271
LeftUpLeg  -19.1704 1.42098 1.58068
LeftLeg  18.9847 -0.299293 0.199198
LeftFoot  -6.29709 0.299153 -5.89582
LeftToes  3.13772e-010 -3.14513e-011 3.96022e-013
1028
root  77.3441 39.0959 4.83075 -170.419 87.6215 -174.39
RightUpLeg  -9.35354 -6.43503 0.50043
RightLeg  9.87891 4.42266 2.02056
RightFoot  -4.24141 0.0838401 -1.81119
RightToes  -1.16417e-010 0 -3.6325e-017
Spine  -2.1628 2.25574 14.8281
Spine1  8.54568 3.62797 -7.65232
HEad  -30.1264 1.93896 -4.8877
LeftShoulder1  -0.964865 5.9211 -33.7316
LeftArm  5.08773 15.2974 -40.2146
LeftForeArm  26.7351 -33.1197 -5.79949
LeftHand  -0.0709549 7.39021 -1.693
RightShoulder  -0.747476 -5.72812 26.9618
RightArm  19.8004 10.9292 47.0914
RightForeArm  9.5448 18.1861 5.0591
RightHand  -0.10033 4.60534 -1.44753
LeftUpLeg  -17.9846 1.32398 1.50364
LeftLeg  11.2749 -0.342361 0.393606
LeftFoot  -3.17176 0.347252 -4.56276
LeftToes  3.13772e-010 -3.14513e-011 3.96022e-013
1029
root  77.9099 39.1275 4.82703 -145.029 88.6014 -149.271
RightUpLeg  -8.41154 -5.86955 1.0007
RightLeg  9.18865 5.07845 1.94423
RightFoot  -4.85836 0.0495913 -1.47871
RightToes  -1.16417e-010 0 -3.6325e-017
Spine  -3.21598 2.22507 13.1827
Spine1  8.47069 3.16478 -6.2217
HEad  -29.5581 3.6214 -5.20513
LeftShoulder1  -0.950428 5.89663 -33.5399
LeftArm  6.21284 14.0502 -39.9178
LeftForeArm  24.9239 -33.2246 -5.93184
LeftHand  -0.0551469 7.40601 -0.795069
RightShoulder  -0.786083 -5.81777 27.3463
RightArm  21.6233 9.17322 47.0955
RightForeArm  10.8233 17.215 5.52377
RightHand  -0.0388404 4.03033 -0.755291
LeftUpLeg  -16.9721 2.57775 1.14483
LeftLeg  5.89804 -2.19765 0.198778
LeftFoot  3.08272 0.14064 -1.60948
LeftToes  3.13772e-010 -3.14513e-011 3.96022e-013
1030
root  78.481 39.1268 4.79048 -106.991 88.8848 -111.257
RightUpLeg  -7.62284 -5.49455 1.36321
RightLeg  9.36771 5.32231 1.96348
RightFoot  -5.77103 0.0626763 -2.05018
RightToes  -1.16417e-010 0 -3.6325e-017
Spine  -4.82452 1.98451 11.6217
Spine1  9.38106 2.60828 -5.08634
HEad  -28.9034 4.72097 -5.13899
LeftShoulder1  -0.948893 5.89491 -33.5049
LeftArm  4.14273 13.5181 -39.9348
LeftForeArm  27.2259 -34.3651 -6.08611
LeftHand  -0.0746235 7.39479 -1.84373
RightShoulder  -0.825988 -5.90569 27.7844
RightArm  21.7828 6.86888 47.069
RightForeArm  13.0451 16.2193 5.90461
RightHand  -0.00928148 3.79465 -0.363205
LeftUpLeg  -16.6396 3.14034 1.20719
LeftLeg  5.68488 -3.78129 -0.146556
LeftFoot  7.64887 -0.539798 3.05905
LeftToes  3.13772e-010 -3.14513e-011 3.96022e-013
1031
root  79.0576 39.0554 4.84809 -117.237 88.2603 -120.628
RightUpLeg  -5.96667 -5.02484 1.87827
RightLeg  10.0799 4.39877 1.49912
RightFoot  -7.61909 -0.0130552 -1.18593
RightToes  -1.16417e-010 0 -3.6325e-017
Spine  -5.13065 1.0473 8.1968
Spine1  9.52889 1.06142 -2.09811
HEad  -27.9127 5.56659 -4.67668
LeftShoulder1  -0.966812 5.94424 -33.4359
LeftArm  4.16189 12.4699 -39.6669
LeftForeArm  26.6554 -33.8823 -5.99847
LeftHand  -0.0750091 7.63973 -1.58889
RightShoulder  -0.849347 -5.94767 28.1554
RightArm  21.4259 4.52098 46.9592
RightForeArm  15.2528 14.2993 6.66619
RightHand  0.0116083 2.96532 -0.035802
LeftUpLeg  -16.1836 2.95242 1.71052
LeftLeg  8.77861 -3.75165 0.0785752
LeftFoot  4.22195 -0.249096 1.64392
LeftToes  3.13772e-010 -3.14513e-011 3.96022e-013
1032
root  79.6346 38.9577 5.0375 -155.402 87.7322 -157.365
RightUpLeg  -4.45421 -5.13386 1.52042
RightLeg  12.3661 3.52891 0.994924
RightFoot  -9.66367 -0.0514404 -1.14645
RightToes  -1.16417e-010 0 -3.6325e-017
Spine  -4.43156 0.115409 2.37425
Spine1  9.33119 -0.61612 2.32824
HEad  -27.3439 5.9502 -4.34042
LeftShoulder1  -0.95071 5.91075 -33.3208
LeftArm  4.41486 10.7011 -39.2401
LeftForeArm  25.8875 -32.553 -5.70637
LeftHand  -0.071822 7.47888 -1.49453
RightShoulder  -0.88421 -6.03505 28.3481
RightArm  17.6175 0.931736 47.328
RightForeArm  17.5102 11.7891 7.02364
RightHand  -0.059979 3.53349 -0.999395
LeftUpLeg  -14.772 3.19148 1.42409
LeftLeg  10.7018 -4.94693 -0.560048
LeftFoot  2.75432 -0.180149 1.32936
LeftToes  3.13772e-010 -3.14513e-011 3.96022e-013
1033
root  80.1879 38.8537 5.33004 174.374 86.5682 173.458
RightUpLeg  -4.03876 -5.62952 0.734651
RightLeg  15.9204 2.50583 0.652587
RightFoot  -11.47 -0.0760598 -1.29041
RightToes  -1.16417e-010 0 -3.6325e-017
Spine  -4.14841 -0.739842 -4.46387
Spine1  9.39446 -2.29351 7.11172
HEad  -26.7635 6.74215 -4.31407
LeftShoulder1  -0.93726 5.8779 -33.3025
LeftArm  2.9599 9.70533 -38.4937
LeftForeArm  26.7585 -31.882 -5.49658
LeftHand  -0.114828 8.11945 -2.85477
RightShoulder  -0.883044 -6.03926 28.2427
RightArm  13.0981 -3.67214 48.2359
RightForeArm  21.7297 10.6424 6.18622
RightHand  0.0562421 2.35627 0.62676
LeftUpLeg  -13.6488 3.78436 0.729008
LeftLeg  12.3493 -7.06475 -1.49648
LeftFoot  1.57576 -0.22636 1.92067
LeftToes  3.13772e-010 -3.14513e-011 3.96022e-013
1034
root  80.6766 38.8146 5.37159 155.293 86.7405 155.291
RightUpLeg  -4.00785 -6.29305 -0.397991
RightLeg  19.3833 3.50908 1.19628
RightFoot  -12.3726 -0.0785145 0.676235
RightToes  -1.16417e-010 0 -3.6325e-017
Spine  -4.25539 -0.964969 -6.3011
Spine1  10.0689 -2.34347 6.51457
HEad  -26.028 6.70407 -4.60779
LeftShoulder1  -0.9039 5.79035 -33.356
LeftArm  3.64256 7.93064 -37.3474
LeftForeArm  24.7991 -29.8788 -5.1264
LeftHand  -0.0950942 7.87248 -2.23858
RightShoulder  -0.9027 -6.08893 28.3412
RightArm  11.7613 -6.99292 48.795
RightForeArm  21.2837 8.61696 6.23074
RightHand  0.0318112 2.12828 0.319357
LeftUpLeg  -12.0601 4.64579 0.167109
LeftLeg  13.0348 -7.45075 -1.80407
LeftFoot  0.561323 -0.279361 2.63518
LeftToes  3.13772e-010 -3.14513e-011 3.96022e-013
1035
root  81.0678 38.7671 5.03878 101.215 87.6131 102.378
RightUpLeg  -5.3179 -6.31163 -2.99618
RightLeg  25.3208 6.37272 3.07182
RightFoot  -12.3447 -0.0607535 2.67549
RightToes  -1.16417e-010 0 -3.6325e-017
Spine  -2.98488 -0.405539 -3.41827
Spine1  9.26659 -0.558703 0.87249
HEad  -25.306 6.7454 -5.66991
LeftShoulder1  -0.918873 5.83068 -33.3141
LeftArm  1.97383 7.82614 -36.7698
LeftForeArm  25.2419 -29.1538 -4.93464
LeftHand  -0.0744069 8.10115 -1.11946
RightShoulder  -0.906087 -6.09616 28.3754
RightArm  12.4131 -9.81022 48.9405
RightForeArm  21.6495 6.82331 6.64975
RightHand  0.0223272 2.51473 0.159346
LeftUpLeg  -9.83303 4.62551 -1.25907
LeftLeg  13.1177 -4.49495 -1.13954
LeftFoot  -0.683323 -0.238283 2.60719
LeftToes  3.13772e-010 -3.14513e-011 3.96022e-013
